<mxfile host="65bd71144e">
    <diagram id="QrDfKVTAkVcKjVlRXJ2f" name="第 1 页">
        <mxGraphModel dx="771" dy="2125" grid="1" gridSize="10" guides="0" tooltips="1" connect="1" arrows="1" fold="1" page="0" pageScale="1" pageWidth="827" pageHeight="1169" math="0" shadow="0">
            <root>
                <mxCell id="0"/>
                <mxCell id="1" parent="0"/>
                <mxCell id="36" value="&amp;lt;&amp;lt;control&amp;gt;&amp;gt;&lt;div&gt;&lt;u&gt;AssingManager&lt;/u&gt;&lt;/div&gt;" style="shape=umlLifeline;perimeter=lifelinePerimeter;whiteSpace=wrap;html=1;container=1;dropTarget=0;collapsible=0;recursiveResize=0;outlineConnect=0;portConstraint=eastwest;newEdgeStyle={&quot;edgeStyle&quot;:&quot;elbowEdgeStyle&quot;,&quot;elbow&quot;:&quot;vertical&quot;,&quot;curved&quot;:0,&quot;rounded&quot;:0};" vertex="1" parent="1">
                    <mxGeometry x="840" y="-1280" width="100" height="1400" as="geometry"/>
                </mxCell>
                <mxCell id="37" value="" style="html=1;points=[[0,0,0,0,5],[0,1,0,0,-5],[1,0,0,0,5],[1,1,0,0,-5]];perimeter=orthogonalPerimeter;outlineConnect=0;targetShapes=umlLifeline;portConstraint=eastwest;newEdgeStyle={&quot;curved&quot;:0,&quot;rounded&quot;:0};" vertex="1" parent="36">
                    <mxGeometry x="45" y="220" width="10" height="440" as="geometry"/>
                </mxCell>
                <mxCell id="28" value="&lt;div&gt;&amp;lt;&amp;lt;boundary&amp;gt;&amp;gt;&lt;/div&gt;&lt;div&gt;&lt;u&gt;AssignUI&lt;/u&gt;&lt;/div&gt;" style="shape=umlLifeline;perimeter=lifelinePerimeter;whiteSpace=wrap;html=1;container=1;dropTarget=0;collapsible=0;recursiveResize=0;outlineConnect=0;portConstraint=eastwest;newEdgeStyle={&quot;edgeStyle&quot;:&quot;elbowEdgeStyle&quot;,&quot;elbow&quot;:&quot;vertical&quot;,&quot;curved&quot;:0,&quot;rounded&quot;:0};" vertex="1" parent="1">
                    <mxGeometry x="440" y="-1280" width="100" height="1400" as="geometry"/>
                </mxCell>
                <mxCell id="29" value="" style="html=1;points=[[0,0,0,0,5],[0,1,0,0,-5],[1,0,0,0,5],[1,1,0,0,-5]];perimeter=orthogonalPerimeter;outlineConnect=0;targetShapes=umlLifeline;portConstraint=eastwest;newEdgeStyle={&quot;curved&quot;:0,&quot;rounded&quot;:0};" vertex="1" parent="28">
                    <mxGeometry x="45" y="220" width="10" height="440" as="geometry"/>
                </mxCell>
                <mxCell id="6" value="&lt;div&gt;&amp;lt;&amp;lt;control&amp;gt;&amp;gt;&lt;/div&gt;&lt;div&gt;&lt;u&gt;LoginManager&lt;/u&gt;&lt;/div&gt;" style="shape=umlLifeline;perimeter=lifelinePerimeter;whiteSpace=wrap;html=1;container=1;dropTarget=0;collapsible=0;recursiveResize=0;outlineConnect=0;portConstraint=eastwest;newEdgeStyle={&quot;edgeStyle&quot;:&quot;elbowEdgeStyle&quot;,&quot;elbow&quot;:&quot;vertical&quot;,&quot;curved&quot;:0,&quot;rounded&quot;:0};" parent="1" vertex="1">
                    <mxGeometry x="640" y="-1280" width="100" height="1400" as="geometry"/>
                </mxCell>
                <mxCell id="15" value="&amp;lt;&amp;lt;entity&amp;gt;&amp;gt;&lt;div&gt;&lt;u&gt;UserLibrary&lt;/u&gt;&lt;/div&gt;" style="shape=umlLifeline;perimeter=lifelinePerimeter;whiteSpace=wrap;html=1;container=1;dropTarget=0;collapsible=0;recursiveResize=0;outlineConnect=0;portConstraint=eastwest;newEdgeStyle={&quot;edgeStyle&quot;:&quot;elbowEdgeStyle&quot;,&quot;elbow&quot;:&quot;vertical&quot;,&quot;curved&quot;:0,&quot;rounded&quot;:0};" parent="1" vertex="1">
                    <mxGeometry x="1040" y="-1280" width="100" height="1400" as="geometry"/>
                </mxCell>
                <mxCell id="16" value="" style="html=1;points=[[0,0,0,0,5],[0,1,0,0,-5],[1,0,0,0,5],[1,1,0,0,-5]];perimeter=orthogonalPerimeter;outlineConnect=0;targetShapes=umlLifeline;portConstraint=eastwest;newEdgeStyle={&quot;curved&quot;:0,&quot;rounded&quot;:0};" parent="15" vertex="1">
                    <mxGeometry x="45" y="90" width="10" height="1030" as="geometry"/>
                </mxCell>
                <mxCell id="19" value="&lt;u&gt;User&lt;/u&gt;" style="shape=umlLifeline;perimeter=lifelinePerimeter;whiteSpace=wrap;html=1;container=1;dropTarget=0;collapsible=0;recursiveResize=0;outlineConnect=0;portConstraint=eastwest;newEdgeStyle={&quot;edgeStyle&quot;:&quot;elbowEdgeStyle&quot;,&quot;elbow&quot;:&quot;vertical&quot;,&quot;curved&quot;:0,&quot;rounded&quot;:0};" parent="1" vertex="1">
                    <mxGeometry x="40" y="-1280" width="100" height="1400" as="geometry"/>
                </mxCell>
                <mxCell id="20" value="" style="html=1;points=[[0,0,0,0,5],[0,1,0,0,-5],[1,0,0,0,5],[1,1,0,0,-5]];perimeter=orthogonalPerimeter;outlineConnect=0;targetShapes=umlLifeline;portConstraint=eastwest;newEdgeStyle={&quot;curved&quot;:0,&quot;rounded&quot;:0};" parent="19" vertex="1">
                    <mxGeometry x="45" y="90" width="10" height="1250" as="geometry"/>
                </mxCell>
                <mxCell id="26" value="opt：新用户" style="shape=umlFrame;whiteSpace=wrap;html=1;pointerEvents=0;recursiveResize=0;container=1;collapsible=0;width=90;height=20;" parent="1" vertex="1">
                    <mxGeometry y="-1080" width="1280" height="500" as="geometry"/>
                </mxCell>
                <mxCell id="7" value="" style="html=1;points=[[0,0,0,0,5],[0,1,0,0,-5],[1,0,0,0,5],[1,1,0,0,-5]];perimeter=orthogonalPerimeter;outlineConnect=0;targetShapes=umlLifeline;portConstraint=eastwest;newEdgeStyle={&quot;curved&quot;:0,&quot;rounded&quot;:0};" parent="26" vertex="1">
                    <mxGeometry x="685" y="520" width="10" height="400" as="geometry"/>
                </mxCell>
                <mxCell id="38" value="" style="html=1;verticalAlign=bottom;labelBackgroundColor=none;endArrow=block;endFill=1;" edge="1" parent="26">
                    <mxGeometry width="160" relative="1" as="geometry">
                        <mxPoint x="95" y="40" as="sourcePoint"/>
                        <mxPoint x="485" y="40" as="targetPoint"/>
                    </mxGeometry>
                </mxCell>
                <mxCell id="42" value="" style="html=1;verticalAlign=bottom;labelBackgroundColor=none;endArrow=block;endFill=1;" edge="1" parent="26">
                    <mxGeometry width="160" relative="1" as="geometry">
                        <mxPoint x="95" y="120" as="sourcePoint"/>
                        <mxPoint x="485" y="120" as="targetPoint"/>
                    </mxGeometry>
                </mxCell>
                <mxCell id="46" value="" style="html=1;verticalAlign=bottom;labelBackgroundColor=none;endArrow=open;endFill=0;dashed=1;" edge="1" parent="26">
                    <mxGeometry width="160" relative="1" as="geometry">
                        <mxPoint x="1085" y="200" as="sourcePoint"/>
                        <mxPoint x="895" y="200" as="targetPoint"/>
                    </mxGeometry>
                </mxCell>
                <mxCell id="47" value="" style="html=1;verticalAlign=bottom;labelBackgroundColor=none;endArrow=block;endFill=1;" edge="1" parent="26">
                    <mxGeometry width="160" relative="1" as="geometry">
                        <mxPoint x="895" y="160" as="sourcePoint"/>
                        <mxPoint x="1085" y="160" as="targetPoint"/>
                    </mxGeometry>
                </mxCell>
                <mxCell id="48" value="AssignCheck" style="edgeLabel;html=1;align=center;verticalAlign=middle;resizable=0;points=[];" vertex="1" connectable="0" parent="47">
                    <mxGeometry x="-0.0881" y="9" relative="1" as="geometry">
                        <mxPoint as="offset"/>
                    </mxGeometry>
                </mxCell>
                <mxCell id="n6yCuVXN6WmIahS-QWQl-37" value="alt：&lt;span style=&quot;color: rgb(0, 0, 0); text-align: left; text-wrap-mode: nowrap;&quot;&gt;信息不合法&lt;/span&gt;" style="shape=umlFrame;whiteSpace=wrap;html=1;pointerEvents=0;recursiveResize=0;container=1;collapsible=0;width=120;height=20;" parent="26" vertex="1">
                    <mxGeometry x="10" y="180" width="1190" height="300" as="geometry"/>
                </mxCell>
                <mxCell id="n6yCuVXN6WmIahS-QWQl-39" value="" style="line;strokeWidth=1;dashed=1;labelPosition=center;verticalLabelPosition=bottom;align=left;verticalAlign=top;spacingLeft=20;spacingTop=15;html=1;whiteSpace=wrap;" parent="n6yCuVXN6WmIahS-QWQl-37" vertex="1">
                    <mxGeometry y="140" width="1190" height="10" as="geometry"/>
                </mxCell>
                <mxCell id="n6yCuVXN6WmIahS-QWQl-44" value="else：信&lt;span style=&quot;background-color: transparent;&quot;&gt;息合法&lt;/span&gt;" style="whiteSpace=wrap;html=1;" parent="n6yCuVXN6WmIahS-QWQl-37" vertex="1">
                    <mxGeometry y="150" width="130" height="20" as="geometry"/>
                </mxCell>
                <mxCell id="53" value="" style="html=1;verticalAlign=bottom;labelBackgroundColor=none;endArrow=open;endFill=0;dashed=1;" edge="1" parent="n6yCuVXN6WmIahS-QWQl-37" target="20">
                    <mxGeometry width="160" relative="1" as="geometry">
                        <mxPoint x="475" y="100" as="sourcePoint"/>
                        <mxPoint x="90" y="100" as="targetPoint"/>
                    </mxGeometry>
                </mxCell>
                <mxCell id="57" value="" style="html=1;verticalAlign=bottom;labelBackgroundColor=none;endArrow=open;endFill=0;dashed=1;" edge="1" parent="n6yCuVXN6WmIahS-QWQl-37">
                    <mxGeometry width="160" relative="1" as="geometry">
                        <mxPoint x="1075" y="179.99999999999977" as="sourcePoint"/>
                        <mxPoint x="885" y="179.99999999999977" as="targetPoint"/>
                    </mxGeometry>
                </mxCell>
                <mxCell id="59" value="" style="html=1;verticalAlign=bottom;labelBackgroundColor=none;endArrow=open;endFill=0;dashed=1;" edge="1" parent="n6yCuVXN6WmIahS-QWQl-37">
                    <mxGeometry width="160" relative="1" as="geometry">
                        <mxPoint x="875" y="219.99999999999977" as="sourcePoint"/>
                        <mxPoint x="485" y="219.99999999999977" as="targetPoint"/>
                    </mxGeometry>
                </mxCell>
                <mxCell id="62" value="" style="html=1;verticalAlign=bottom;labelBackgroundColor=none;endArrow=open;endFill=0;dashed=1;" edge="1" parent="n6yCuVXN6WmIahS-QWQl-37">
                    <mxGeometry width="160" relative="1" as="geometry">
                        <mxPoint x="475" y="259.9999999999998" as="sourcePoint"/>
                        <mxPoint x="85" y="259.9999999999998" as="targetPoint"/>
                    </mxGeometry>
                </mxCell>
                <mxCell id="71" value="&lt;div&gt;&amp;lt;&amp;lt;boundary&amp;gt;&amp;gt;&lt;/div&gt;&lt;div&gt;&lt;u&gt;LoginUI&lt;/u&gt;&lt;/div&gt;" style="shape=umlLifeline;perimeter=lifelinePerimeter;whiteSpace=wrap;html=1;container=1;dropTarget=0;collapsible=0;recursiveResize=0;outlineConnect=0;portConstraint=eastwest;newEdgeStyle={&quot;edgeStyle&quot;:&quot;elbowEdgeStyle&quot;,&quot;elbow&quot;:&quot;vertical&quot;,&quot;curved&quot;:0,&quot;rounded&quot;:0};" vertex="1" parent="26">
                    <mxGeometry x="240" y="-200" width="100" height="1400" as="geometry"/>
                </mxCell>
                <mxCell id="73" value="" style="html=1;verticalAlign=bottom;labelBackgroundColor=none;endArrow=block;endFill=1;" edge="1" parent="26">
                    <mxGeometry width="160" relative="1" as="geometry">
                        <mxPoint x="95" y="560" as="sourcePoint"/>
                        <mxPoint x="285" y="560" as="targetPoint"/>
                    </mxGeometry>
                </mxCell>
                <mxCell id="76" value="" style="html=1;verticalAlign=bottom;labelBackgroundColor=none;endArrow=block;endFill=1;" edge="1" parent="26">
                    <mxGeometry width="160" relative="1" as="geometry">
                        <mxPoint x="295" y="560" as="sourcePoint"/>
                        <mxPoint x="685.0000000000002" y="560" as="targetPoint"/>
                    </mxGeometry>
                </mxCell>
                <mxCell id="79" value="" style="html=1;verticalAlign=bottom;labelBackgroundColor=none;endArrow=block;endFill=1;" edge="1" parent="26">
                    <mxGeometry width="160" relative="1" as="geometry">
                        <mxPoint x="695" y="600" as="sourcePoint"/>
                        <mxPoint x="1085" y="600" as="targetPoint"/>
                    </mxGeometry>
                </mxCell>
                <mxCell id="82" value="" style="html=1;verticalAlign=bottom;labelBackgroundColor=none;endArrow=open;endFill=0;dashed=1;" edge="1" parent="26">
                    <mxGeometry width="160" relative="1" as="geometry">
                        <mxPoint x="1085" y="680" as="sourcePoint"/>
                        <mxPoint x="695" y="680" as="targetPoint"/>
                    </mxGeometry>
                </mxCell>
                <mxCell id="n6yCuVXN6WmIahS-QWQl-45" value="" style="shape=umlActor;verticalLabelPosition=bottom;verticalAlign=top;html=1;" parent="1" vertex="1">
                    <mxGeometry x="70" y="-1340" width="30" height="60" as="geometry"/>
                </mxCell>
                <mxCell id="n6yCuVXN6WmIahS-QWQl-63" value="&lt;div style=&quot;text-align: left;&quot;&gt;&lt;span style=&quot;background-color: transparent;&quot;&gt;alt：&lt;span style=&quot;text-wrap-mode: nowrap;&quot;&gt;验证不通过&lt;/span&gt;&lt;/span&gt;&lt;/div&gt;" style="shape=umlFrame;whiteSpace=wrap;html=1;pointerEvents=0;recursiveResize=0;container=1;collapsible=0;width=110;height=20;" parent="1" vertex="1">
                    <mxGeometry x="10" y="-430" width="1190" height="460" as="geometry"/>
                </mxCell>
                <mxCell id="n6yCuVXN6WmIahS-QWQl-65" value="" style="line;strokeWidth=1;dashed=1;labelPosition=center;verticalLabelPosition=bottom;align=left;verticalAlign=top;spacingLeft=20;spacingTop=15;html=1;whiteSpace=wrap;" parent="n6yCuVXN6WmIahS-QWQl-63" vertex="1">
                    <mxGeometry y="130" width="1190" height="10" as="geometry"/>
                </mxCell>
                <mxCell id="n6yCuVXN6WmIahS-QWQl-71" value="else：验证通过" style="whiteSpace=wrap;html=1;" parent="n6yCuVXN6WmIahS-QWQl-63" vertex="1">
                    <mxGeometry y="140" width="100" height="20" as="geometry"/>
                </mxCell>
                <mxCell id="n6yCuVXN6WmIahS-QWQl-80" value="showTeacherHome" style="text;html=1;align=center;verticalAlign=middle;resizable=0;points=[];autosize=1;strokeColor=none;fillColor=none;" parent="n6yCuVXN6WmIahS-QWQl-63" vertex="1">
                    <mxGeometry x="115" y="330" width="130" height="30" as="geometry"/>
                </mxCell>
                <mxCell id="84" value="" style="html=1;verticalAlign=bottom;labelBackgroundColor=none;endArrow=open;endFill=0;dashed=1;" edge="1" parent="n6yCuVXN6WmIahS-QWQl-63">
                    <mxGeometry width="160" relative="1" as="geometry">
                        <mxPoint x="675" y="70" as="sourcePoint"/>
                        <mxPoint x="285" y="70" as="targetPoint"/>
                    </mxGeometry>
                </mxCell>
                <mxCell id="86" value="" style="html=1;verticalAlign=bottom;labelBackgroundColor=none;endArrow=open;endFill=0;dashed=1;" edge="1" parent="n6yCuVXN6WmIahS-QWQl-63">
                    <mxGeometry width="160" relative="1" as="geometry">
                        <mxPoint x="275" y="110" as="sourcePoint"/>
                        <mxPoint x="85" y="110" as="targetPoint"/>
                    </mxGeometry>
                </mxCell>
                <mxCell id="87" value="showLogin" style="edgeLabel;html=1;align=center;verticalAlign=middle;resizable=0;points=[];" vertex="1" connectable="0" parent="86">
                    <mxGeometry x="0.0912" y="-13" relative="1" as="geometry">
                        <mxPoint as="offset"/>
                    </mxGeometry>
                </mxCell>
                <mxCell id="88" value="" style="html=1;verticalAlign=bottom;labelBackgroundColor=none;endArrow=open;endFill=0;dashed=1;" edge="1" parent="n6yCuVXN6WmIahS-QWQl-63">
                    <mxGeometry width="160" relative="1" as="geometry">
                        <mxPoint x="1075" y="190" as="sourcePoint"/>
                        <mxPoint x="685" y="190" as="targetPoint"/>
                    </mxGeometry>
                </mxCell>
                <mxCell id="90" value="" style="html=1;verticalAlign=bottom;labelBackgroundColor=none;endArrow=open;endFill=0;dashed=1;" edge="1" parent="n6yCuVXN6WmIahS-QWQl-63">
                    <mxGeometry width="160" relative="1" as="geometry">
                        <mxPoint x="675.0000000000002" y="230" as="sourcePoint"/>
                        <mxPoint x="285" y="230" as="targetPoint"/>
                    </mxGeometry>
                </mxCell>
                <mxCell id="n6yCuVXN6WmIahS-QWQl-87" value="alt：老师" style="shape=umlFrame;whiteSpace=wrap;html=1;pointerEvents=0;recursiveResize=0;container=1;collapsible=0;width=60;height=20;" parent="1" vertex="1">
                    <mxGeometry x="20" y="-140" width="290" height="135" as="geometry"/>
                </mxCell>
                <mxCell id="n6yCuVXN6WmIahS-QWQl-89" value="" style="line;strokeWidth=1;dashed=1;labelPosition=center;verticalLabelPosition=bottom;align=left;verticalAlign=top;spacingLeft=20;spacingTop=15;html=1;whiteSpace=wrap;" parent="n6yCuVXN6WmIahS-QWQl-87" vertex="1">
                    <mxGeometry y="70" width="290" height="10" as="geometry"/>
                </mxCell>
                <mxCell id="n6yCuVXN6WmIahS-QWQl-90" value="else：&lt;span style=&quot;color: rgb(0, 0, 0); text-wrap-mode: nowrap;&quot;&gt;学生身份&lt;/span&gt;" style="whiteSpace=wrap;html=1;" parent="n6yCuVXN6WmIahS-QWQl-87" vertex="1">
                    <mxGeometry y="80" width="90" height="20" as="geometry"/>
                </mxCell>
                <mxCell id="92" value="" style="html=1;verticalAlign=bottom;labelBackgroundColor=none;endArrow=open;endFill=0;dashed=1;" edge="1" parent="n6yCuVXN6WmIahS-QWQl-87">
                    <mxGeometry width="160" relative="1" as="geometry">
                        <mxPoint x="265" y="60" as="sourcePoint"/>
                        <mxPoint x="75" y="60" as="targetPoint"/>
                    </mxGeometry>
                </mxCell>
                <mxCell id="94" value="" style="html=1;verticalAlign=bottom;labelBackgroundColor=none;endArrow=open;endFill=0;dashed=1;" edge="1" parent="n6yCuVXN6WmIahS-QWQl-87">
                    <mxGeometry width="160" relative="1" as="geometry">
                        <mxPoint x="265" y="120" as="sourcePoint"/>
                        <mxPoint x="75" y="120" as="targetPoint"/>
                    </mxGeometry>
                </mxCell>
                <mxCell id="30" value="" style="html=1;verticalAlign=bottom;labelBackgroundColor=none;endArrow=block;endFill=1;" edge="1" parent="1">
                    <mxGeometry width="160" relative="1" as="geometry">
                        <mxPoint x="95" y="-1160" as="sourcePoint"/>
                        <mxPoint x="285" y="-1160" as="targetPoint"/>
                    </mxGeometry>
                </mxCell>
                <mxCell id="31" value="goto" style="text;html=1;align=center;verticalAlign=middle;resizable=0;points=[];autosize=1;strokeColor=none;fillColor=none;" vertex="1" parent="1">
                    <mxGeometry x="170" y="-1180" width="50" height="30" as="geometry"/>
                </mxCell>
                <mxCell id="32" value="" style="html=1;verticalAlign=bottom;labelBackgroundColor=none;endArrow=open;endFill=0;dashed=1;" edge="1" parent="1">
                    <mxGeometry width="160" relative="1" as="geometry">
                        <mxPoint x="285" y="-1120" as="sourcePoint"/>
                        <mxPoint x="95" y="-1120" as="targetPoint"/>
                    </mxGeometry>
                </mxCell>
                <mxCell id="33" value="showLogin" style="text;html=1;align=center;verticalAlign=middle;resizable=0;points=[];autosize=1;strokeColor=none;fillColor=none;" vertex="1" parent="1">
                    <mxGeometry x="150" y="-1142" width="80" height="30" as="geometry"/>
                </mxCell>
                <mxCell id="39" value="NewUser" style="text;html=1;align=center;verticalAlign=middle;resizable=0;points=[];autosize=1;strokeColor=none;fillColor=none;" vertex="1" parent="1">
                    <mxGeometry x="265" y="-1062" width="70" height="30" as="geometry"/>
                </mxCell>
                <mxCell id="41" value="showAssign" style="text;html=1;align=center;verticalAlign=middle;resizable=0;points=[];autosize=1;strokeColor=none;fillColor=none;" vertex="1" parent="1">
                    <mxGeometry x="255" y="-1022" width="90" height="30" as="geometry"/>
                </mxCell>
                <mxCell id="43" value="AssignInfo" style="text;html=1;align=center;verticalAlign=middle;resizable=0;points=[];autosize=1;strokeColor=none;fillColor=none;" vertex="1" parent="1">
                    <mxGeometry x="260" y="-982" width="80" height="30" as="geometry"/>
                </mxCell>
                <mxCell id="44" value="" style="html=1;verticalAlign=bottom;labelBackgroundColor=none;endArrow=block;endFill=1;" edge="1" parent="1">
                    <mxGeometry width="160" relative="1" as="geometry">
                        <mxPoint x="495" y="-960" as="sourcePoint"/>
                        <mxPoint x="885" y="-960" as="targetPoint"/>
                    </mxGeometry>
                </mxCell>
                <mxCell id="45" value="AssignRequest" style="text;html=1;align=center;verticalAlign=middle;resizable=0;points=[];autosize=1;strokeColor=none;fillColor=none;" vertex="1" parent="1">
                    <mxGeometry x="630" y="-982" width="100" height="30" as="geometry"/>
                </mxCell>
                <mxCell id="49" value="AssignInvalid" style="text;html=1;align=center;verticalAlign=middle;resizable=0;points=[];autosize=1;strokeColor=none;fillColor=none;" vertex="1" parent="1">
                    <mxGeometry x="945" y="-902" width="90" height="30" as="geometry"/>
                </mxCell>
                <mxCell id="50" value="" style="html=1;verticalAlign=bottom;labelBackgroundColor=none;endArrow=open;endFill=0;dashed=1;" edge="1" parent="1" target="29">
                    <mxGeometry width="160" relative="1" as="geometry">
                        <mxPoint x="885" y="-840" as="sourcePoint"/>
                        <mxPoint x="500" y="-840" as="targetPoint"/>
                    </mxGeometry>
                </mxCell>
                <mxCell id="52" value="AssignFailed" style="text;html=1;align=center;verticalAlign=middle;resizable=0;points=[];autosize=1;strokeColor=none;fillColor=none;" vertex="1" parent="1">
                    <mxGeometry x="635" y="-862" width="90" height="30" as="geometry"/>
                </mxCell>
                <mxCell id="55" value="showAssign" style="text;html=1;align=center;verticalAlign=middle;resizable=0;points=[];autosize=1;strokeColor=none;fillColor=none;" vertex="1" parent="1">
                    <mxGeometry x="235" y="-822" width="90" height="30" as="geometry"/>
                </mxCell>
                <mxCell id="40" value="" style="html=1;verticalAlign=bottom;labelBackgroundColor=none;endArrow=open;endFill=0;dashed=1;" edge="1" parent="1">
                    <mxGeometry width="160" relative="1" as="geometry">
                        <mxPoint x="485" y="-1000" as="sourcePoint"/>
                        <mxPoint x="95" y="-1000" as="targetPoint"/>
                    </mxGeometry>
                </mxCell>
                <mxCell id="58" value="AssignValid" style="text;html=1;align=center;verticalAlign=middle;resizable=0;points=[];autosize=1;strokeColor=none;fillColor=none;" vertex="1" parent="1">
                    <mxGeometry x="945" y="-742" width="90" height="30" as="geometry"/>
                </mxCell>
                <mxCell id="61" value="AssignSuccess" style="text;html=1;align=center;verticalAlign=middle;resizable=0;points=[];autosize=1;strokeColor=none;fillColor=none;" vertex="1" parent="1">
                    <mxGeometry x="630" y="-702" width="100" height="30" as="geometry"/>
                </mxCell>
                <mxCell id="63" value="showLogin" style="text;html=1;align=center;verticalAlign=middle;resizable=0;points=[];autosize=1;strokeColor=none;fillColor=none;" vertex="1" parent="1">
                    <mxGeometry x="240" y="-662" width="80" height="30" as="geometry"/>
                </mxCell>
                <mxCell id="75" value="LoginInfo" style="text;html=1;align=center;verticalAlign=middle;resizable=0;points=[];autosize=1;strokeColor=none;fillColor=none;" vertex="1" parent="1">
                    <mxGeometry x="155" y="-542" width="70" height="30" as="geometry"/>
                </mxCell>
                <mxCell id="78" value="LoginRequest" style="text;html=1;align=center;verticalAlign=middle;resizable=0;points=[];autosize=1;strokeColor=none;fillColor=none;" vertex="1" parent="1">
                    <mxGeometry x="430" y="-542" width="100" height="30" as="geometry"/>
                </mxCell>
                <mxCell id="81" value="LoginCheck" style="text;html=1;align=center;verticalAlign=middle;resizable=0;points=[];autosize=1;strokeColor=none;fillColor=none;" vertex="1" parent="1">
                    <mxGeometry x="835" y="-502" width="90" height="30" as="geometry"/>
                </mxCell>
                <mxCell id="83" value="LoginInvalid" style="text;html=1;align=center;verticalAlign=middle;resizable=0;points=[];autosize=1;strokeColor=none;fillColor=none;" vertex="1" parent="1">
                    <mxGeometry x="825" y="-422" width="90" height="30" as="geometry"/>
                </mxCell>
                <mxCell id="85" value="LoginFailed" style="text;html=1;align=center;verticalAlign=middle;resizable=0;points=[];autosize=1;strokeColor=none;fillColor=none;" vertex="1" parent="1">
                    <mxGeometry x="435" y="-382" width="90" height="30" as="geometry"/>
                </mxCell>
                <mxCell id="17" value="&lt;div&gt;&amp;lt;&amp;lt;boundary&amp;gt;&amp;gt;&lt;/div&gt;&lt;div&gt;&lt;u&gt;LoginUI&lt;/u&gt;&lt;/div&gt;" style="shape=umlLifeline;perimeter=lifelinePerimeter;whiteSpace=wrap;html=1;container=1;dropTarget=0;collapsible=0;recursiveResize=0;outlineConnect=0;portConstraint=eastwest;newEdgeStyle={&quot;edgeStyle&quot;:&quot;elbowEdgeStyle&quot;,&quot;elbow&quot;:&quot;vertical&quot;,&quot;curved&quot;:0,&quot;rounded&quot;:0};" parent="1" vertex="1">
                    <mxGeometry x="240" y="-1280" width="100" height="1400" as="geometry"/>
                </mxCell>
                <mxCell id="18" value="" style="html=1;points=[[0,0,0,0,5],[0,1,0,0,-5],[1,0,0,0,5],[1,1,0,0,-5]];perimeter=orthogonalPerimeter;outlineConnect=0;targetShapes=umlLifeline;portConstraint=eastwest;newEdgeStyle={&quot;curved&quot;:0,&quot;rounded&quot;:0};" parent="17" vertex="1">
                    <mxGeometry x="45" y="90" width="10" height="90" as="geometry"/>
                </mxCell>
                <mxCell id="72" value="" style="html=1;points=[[0,0,0,0,5],[0,1,0,0,-5],[1,0,0,0,5],[1,1,0,0,-5]];perimeter=orthogonalPerimeter;outlineConnect=0;targetShapes=umlLifeline;portConstraint=eastwest;newEdgeStyle={&quot;curved&quot;:0,&quot;rounded&quot;:0};" vertex="1" parent="17">
                    <mxGeometry x="45" y="720" width="10" height="620" as="geometry"/>
                </mxCell>
                <mxCell id="89" value="LoginValid" style="text;html=1;align=center;verticalAlign=middle;resizable=0;points=[];autosize=1;strokeColor=none;fillColor=none;" vertex="1" parent="1">
                    <mxGeometry x="830" y="-262" width="80" height="30" as="geometry"/>
                </mxCell>
                <mxCell id="91" value="LoginSuccess" style="text;html=1;align=center;verticalAlign=middle;resizable=0;points=[];autosize=1;strokeColor=none;fillColor=none;" vertex="1" parent="1">
                    <mxGeometry x="420" y="-222" width="100" height="30" as="geometry"/>
                </mxCell>
                <mxCell id="96" value="showStudentHome" style="text;html=1;align=center;verticalAlign=middle;resizable=0;points=[];autosize=1;strokeColor=none;fillColor=none;" vertex="1" parent="1">
                    <mxGeometry x="110" y="-42" width="120" height="30" as="geometry"/>
                </mxCell>
            </root>
        </mxGraphModel>
    </diagram>
</mxfile>